<svg width="880" height="560" viewBox="0 0 880 560" fill="none" xmlns="http://www.w3.org/2000/svg" font-family="Inter, system-ui, sans-serif">
  <rect width="880" height="560" rx="12" fill="#0A0A0B"/>
  <rect x="0.5" y="0.5" width="879" height="559" rx="11.5" stroke="#2A2A2E"/>

  <!-- browser chrome -->
  <rect x="24" y="24" width="832" height="512" rx="8" fill="#141416" stroke="#2A2A2E"/>
  <rect x="24" y="24" width="832" height="44" rx="8" fill="#1B1B1E"/>
  <rect x="24" y="60" width="832" height="8" fill="#1B1B1E"/>
  <circle cx="48" cy="46" r="5" fill="#3A3A3E"/>
  <circle cx="66" cy="46" r="5" fill="#3A3A3E"/>
  <circle cx="84" cy="46" r="5" fill="#3A3A3E"/>
  <rect x="112" y="36" width="500" height="20" rx="10" fill="#0F0F11" stroke="#2A2A2E"/>
  <text x="128" y="50" fill="#6B6B70" font-size="12">staging.acme-store.com  ·  QA preview</text>

  <!-- page content: a product row being checked -->
  <text x="52" y="104" fill="#8A8A90" font-size="11" letter-spacing="1.5">CROSS-BROWSER + MOBILE CHECK</text>

  <!-- highlighted element (the thing under QA) -->
  <rect x="50" y="120" width="500" height="200" rx="8" fill="#0F0F11" stroke="#CDF93A" stroke-width="2"/>
  <rect x="70" y="142" width="160" height="120" rx="6" fill="#1B1B1E"/>
  <text x="250" y="160" fill="#F4F4F5" font-size="16" font-weight="600">Everyday Hoodie</text>
  <text x="250" y="184" fill="#9A9AA0" font-size="13">£68.00</text>
  <rect x="250" y="204" width="180" height="34" rx="6" fill="#CDF93A"/>
  <text x="286" y="226" fill="#0A0A0B" font-size="13" font-weight="600">Add to cart</text>
  <text x="250" y="266" fill="#6B6B70" font-size="11">Sticky ATC · tracking fires on click</text>

  <!-- annotation callout -->
  <path d="M552 150 L604 150" stroke="#CDF93A" stroke-width="1.5" stroke-dasharray="3 3"/>
  <rect x="604" y="122" width="228" height="92" rx="8" fill="#181811" stroke="#CDF93A" stroke-opacity="0.5"/>
  <text x="620" y="148" fill="#CDF93A" font-size="12" font-weight="600">Check this element</text>
  <text x="620" y="170" fill="#C8C8CC" font-size="12">No layout shift on load,</text>
  <text x="620" y="188" fill="#C8C8CC" font-size="12">button tappable on 375px,</text>
  <text x="620" y="206" fill="#C8C8CC" font-size="12">add_to_cart event in console.</text>

  <!-- checklist -->
  <g>
    <circle cx="58" cy="366" r="8" fill="#CDF93A"/>
    <path d="M54.5 366 L57 368.5 L61.5 363.5" stroke="#0A0A0B" stroke-width="1.6" fill="none" stroke-linecap="round" stroke-linejoin="round"/>
    <text x="76" y="371" fill="#C8C8CC" font-size="13">Chrome — desktop + mobile</text>

    <circle cx="58" cy="398" r="8" fill="#CDF93A"/>
    <path d="M54.5 398 L57 400.5 L61.5 395.5" stroke="#0A0A0B" stroke-width="1.6" fill="none" stroke-linecap="round" stroke-linejoin="round"/>
    <text x="76" y="403" fill="#C8C8CC" font-size="13">Safari — iOS</text>

    <circle cx="58" cy="430" r="8" fill="none" stroke="#3A3A3E" stroke-width="1.5"/>
    <text x="76" y="435" fill="#6B6B70" font-size="13">Firefox — desktop</text>
  </g>
</svg>
