<svg xmlns="http://www.w3.org/2000/svg" viewBox="0 305 982 365" fill="none">
<path d="M945.148 346.799C956.482 346.799 965.348 350.266 971.748 357.199C978.148 363.999 981.348 373.466 981.348 385.599V452.199H959.748V389.799C959.748 382.332 957.682 376.399 953.548 371.999C949.415 367.466 944.015 365.199 937.348 365.199C928.815 365.199 921.748 368.066 916.148 373.799C910.548 379.399 907.748 386.666 907.748 395.599V452.199H885.948V350.599H904.948L907.748 365.199H907.948C917.015 352.932 929.415 346.799 945.148 346.799Z" fill="white"/>
<path d="M820.669 456.199C809.602 456.199 799.869 453.932 791.469 449.399C783.202 444.866 776.802 438.466 772.269 430.199C767.735 421.932 765.469 412.332 765.469 401.399C765.469 390.466 767.735 380.866 772.269 372.599C776.802 364.332 783.202 357.932 791.469 353.399C799.869 348.866 809.602 346.599 820.669 346.599C831.602 346.599 841.202 348.866 849.469 353.399C857.869 357.932 864.335 364.332 868.869 372.599C873.535 380.866 875.869 390.466 875.869 401.399C875.869 412.332 873.535 421.932 868.869 430.199C864.335 438.466 857.869 444.866 849.469 449.399C841.202 453.932 831.602 456.199 820.669 456.199ZM820.669 437.399C830.802 437.399 838.935 434.132 845.069 427.599C851.202 421.066 854.269 412.332 854.269 401.399C854.269 390.466 851.202 381.799 845.069 375.399C839.069 368.866 830.935 365.599 820.669 365.599C810.402 365.599 802.202 368.866 796.069 375.399C790.069 381.799 787.069 390.466 787.069 401.399C787.069 412.332 790.135 421.066 796.269 427.599C802.402 434.132 810.535 437.399 820.669 437.399Z" fill="white"/>
<path d="M743.114 333.199C738.847 333.199 735.381 331.932 732.714 329.399C730.047 326.732 728.714 323.266 728.714 318.999C728.714 314.866 730.047 311.532 732.714 308.999C735.381 306.332 738.847 304.999 743.114 304.999C747.38 304.999 750.847 306.332 753.514 308.999C756.181 311.532 757.514 314.866 757.514 318.999C757.514 323.266 756.181 326.732 753.514 329.399C750.847 331.932 747.38 333.199 743.114 333.199ZM731.914 350.599H753.714V452.199H731.914V350.599Z" fill="white"/>
<path d="M676.594 455.999C662.861 455.999 651.327 452.866 641.994 446.599C632.661 440.332 627.594 431.666 626.794 420.599L647.194 417.399C647.861 423.666 650.927 428.799 656.394 432.799C661.994 436.799 668.927 438.799 677.194 438.799C684.261 438.799 690.194 437.399 694.994 434.599C699.794 431.799 702.194 428.199 702.194 423.799C702.194 420.466 700.327 417.732 696.594 415.599C692.994 413.332 687.261 411.532 679.394 410.199L662.994 407.399C652.194 405.266 644.327 401.999 639.394 397.599C634.461 393.066 631.994 386.866 631.994 378.999C631.994 372.732 633.661 367.132 636.994 362.199C640.461 357.266 645.261 353.466 651.394 350.799C657.527 348.132 664.527 346.799 672.394 346.799C683.727 346.799 693.327 349.466 701.194 354.799C709.194 360.132 714.061 367.066 715.794 375.599L696.194 379.999C695.527 375.199 692.927 371.266 688.394 368.199C683.994 365.132 678.527 363.599 671.994 363.599C666.261 363.599 661.461 364.999 657.594 367.799C653.861 370.599 651.994 373.866 651.994 377.599C651.994 380.532 653.461 382.932 656.394 384.799C659.327 386.532 663.994 388.066 670.394 389.399L686.994 392.399C699.527 394.799 708.527 398.332 713.994 402.999C719.594 407.666 722.394 413.999 722.394 421.999C722.394 428.532 720.394 434.399 716.394 439.599C712.527 444.799 707.127 448.866 700.194 451.799C693.261 454.599 685.394 455.999 676.594 455.999Z" fill="white"/>
<path d="M595.787 346.799C604.721 346.799 611.987 349.666 617.587 355.399C623.321 361.132 626.721 369.132 627.787 379.399L609.187 385.199C608.654 378.932 606.787 373.999 603.587 370.399C600.387 366.799 596.321 364.999 591.387 364.999C583.921 364.999 578.121 367.932 573.987 373.799C569.854 379.532 567.787 387.599 567.787 397.999V452.199H545.987V350.599H563.787L566.587 366.399H566.787C569.587 360.266 573.521 355.466 578.587 351.999C583.787 348.532 589.521 346.799 595.787 346.799Z" fill="white"/>
<path d="M488.186 456.199C477.119 456.199 467.186 453.799 458.386 448.999C449.719 444.199 442.919 437.599 437.986 429.199C433.053 420.666 430.586 410.999 430.586 400.199C430.586 389.932 432.853 380.732 437.386 372.599C441.919 364.466 448.186 358.132 456.186 353.599C464.319 348.932 473.453 346.599 483.586 346.599C493.586 346.599 502.453 348.866 510.186 353.399C517.919 357.932 523.853 364.199 527.986 372.199C532.253 380.199 534.386 389.332 534.386 399.599C534.386 402.532 534.186 405.332 533.786 407.999H452.986C454.186 417.066 458.053 424.399 464.586 429.999C471.119 435.466 479.119 438.199 488.586 438.199C495.786 438.199 502.253 436.666 507.986 433.599C513.719 430.532 517.919 426.532 520.586 421.599L536.786 429.799C533.453 437.532 527.319 443.866 518.386 448.799C509.586 453.732 499.519 456.199 488.186 456.199ZM511.786 391.999C510.853 383.066 507.853 376.266 502.786 371.599C497.853 366.932 491.386 364.599 483.386 364.599C475.519 364.599 468.853 367.132 463.386 372.199C457.919 377.132 454.453 383.732 452.986 391.999H511.786Z" fill="white"/>
<path d="M327.685 350.599H350.485L380.285 433.799H380.485L410.285 350.599H433.085L394.085 452.199H366.485L327.685 350.599Z" fill="white"/>
<path d="M290.305 346.799C301.638 346.799 310.505 350.266 316.905 357.199C323.305 363.999 326.505 373.466 326.505 385.599V452.199H304.905V389.799C304.905 382.332 302.838 376.399 298.704 371.999C294.571 367.466 289.171 365.199 282.505 365.199C273.971 365.199 266.905 368.066 261.305 373.799C255.705 379.399 252.905 386.666 252.905 395.599V452.199H231.104V350.599H250.104L252.905 365.199H253.104C262.171 352.932 274.571 346.799 290.305 346.799Z" fill="white"/>
<path d="M165.825 456.199C154.758 456.199 145.025 453.932 136.625 449.399C128.358 444.866 121.958 438.466 117.425 430.199C112.892 421.932 110.625 412.332 110.625 401.399C110.625 390.466 112.892 380.866 117.425 372.599C121.958 364.332 128.358 357.932 136.625 353.399C145.025 348.866 154.758 346.599 165.825 346.599C176.758 346.599 186.358 348.866 194.625 353.399C203.025 357.932 209.492 364.332 214.025 372.599C218.692 380.866 221.025 390.466 221.025 401.399C221.025 412.332 218.692 421.932 214.025 430.199C209.492 438.466 203.025 444.866 194.625 449.399C186.358 453.932 176.758 456.199 165.825 456.199ZM165.825 437.399C175.958 437.399 184.092 434.132 190.225 427.599C196.358 421.066 199.425 412.332 199.425 401.399C199.425 390.466 196.358 381.799 190.225 375.399C184.225 368.866 176.092 365.599 165.825 365.599C155.558 365.599 147.358 368.866 141.225 375.399C135.225 381.799 132.225 390.466 132.225 401.399C132.225 412.332 135.292 421.066 141.425 427.599C147.558 434.132 155.692 437.399 165.825 437.399Z" fill="white"/>
<path d="M54.2 456.199C43.8 456.199 34.4667 453.866 26.2 449.199C17.9333 444.532 11.4667 438.066 6.8 429.799C2.26667 421.399 0 411.932 0 401.399C0 390.866 2.2 381.466 6.6 373.199C11 364.932 17.0667 358.466 24.8 353.799C32.6667 348.999 41.5333 346.599 51.4 346.599C63.1333 346.599 73.4 349.866 82.2 356.399C91.1333 362.932 96.8 371.399 99.2 381.799L78.8 386.599C77.0667 380.199 73.6667 375.066 68.6 371.199C63.6667 367.332 58 365.399 51.6 365.399C46 365.399 40.9333 366.932 36.4 369.999C31.8667 373.066 28.2667 377.332 25.6 382.799C22.9333 388.266 21.6 394.466 21.6 401.399C21.6 408.466 23 414.732 25.8 420.199C28.7333 425.666 32.6667 429.932 37.6 432.999C42.6667 435.932 48.3333 437.399 54.6 437.399C62.4667 437.399 69.3333 434.999 75.2 430.199C81.0667 425.399 84.5333 419.199 85.6 411.599L106.2 415.199C105.133 422.932 102.133 429.932 97.2 436.199C92.4 442.466 86.2 447.399 78.6 450.999C71.1333 454.466 63 456.199 54.2 456.199Z" fill="white"/>
<path d="M736.873 627.399C725.807 627.399 715.873 624.999 707.073 620.199C698.407 615.399 691.607 608.799 686.673 600.399C681.74 591.865 679.273 582.199 679.273 571.399C679.273 561.132 681.54 551.932 686.073 543.799C690.607 535.665 696.873 529.332 704.873 524.799C713.007 520.132 722.14 517.799 732.273 517.799C742.273 517.799 751.14 520.065 758.873 524.599C766.607 529.132 772.54 535.399 776.673 543.399C780.94 551.399 783.073 560.532 783.073 570.799C783.073 573.732 782.873 576.532 782.473 579.199H701.673C702.873 588.265 706.74 595.599 713.273 601.199C719.807 606.665 727.807 609.399 737.273 609.399C744.473 609.399 750.94 607.865 756.673 604.799C762.407 601.732 766.607 597.732 769.273 592.799L785.473 600.999C782.14 608.732 776.007 615.065 767.073 619.999C758.273 624.932 748.207 627.399 736.873 627.399ZM760.473 563.199C759.54 554.265 756.54 547.465 751.473 542.799C746.54 538.132 740.073 535.799 732.073 535.799C724.207 535.799 717.54 538.332 712.073 543.399C706.607 548.332 703.14 554.932 701.673 563.199H760.473Z" fill="white"/>
<path d="M633.797 517.999C645.13 517.999 653.997 521.466 660.397 528.399C666.797 535.199 669.997 544.666 669.997 556.799V623.399H648.397V560.999C648.397 553.532 646.33 547.599 642.197 543.199C638.063 538.666 632.663 536.399 625.997 536.399C617.463 536.399 610.397 539.266 604.797 544.999C599.197 550.599 596.397 557.866 596.397 566.799V623.399H574.597V521.799H593.597L596.397 536.399H596.597C605.663 524.132 618.063 517.999 633.797 517.999Z" fill="white"/>
<path d="M548.442 504.399C544.175 504.399 540.709 503.132 538.042 500.599C535.375 497.932 534.042 494.466 534.042 490.199C534.042 486.066 535.375 482.732 538.042 480.199C540.709 477.532 544.175 476.199 548.442 476.199C552.709 476.199 556.175 477.532 558.842 480.199C561.509 482.732 562.842 486.066 562.842 490.199C562.842 494.466 561.509 497.932 558.842 500.599C556.175 503.132 552.709 504.399 548.442 504.399ZM537.242 521.799H559.042V623.399H537.242V521.799Z" fill="white"/>
<path d="M463.553 669.399C452.086 669.399 441.353 667.132 431.353 662.599C421.353 658.199 413.886 652.399 408.953 645.199L421.953 630.199C425.82 636.332 431.486 641.266 438.953 644.999C446.42 648.732 454.22 650.599 462.353 650.599C473.686 650.599 482.82 647.266 489.753 640.599C496.82 633.932 500.353 625.266 500.353 614.599V605.999H500.153C496.02 611.199 490.686 615.399 484.153 618.599C477.62 621.799 471.086 623.399 464.553 623.399C454.953 623.399 446.486 621.266 439.153 616.999C431.82 612.599 426.086 606.466 421.953 598.599C417.953 590.732 415.953 581.666 415.953 571.399C415.953 560.866 417.953 551.599 421.953 543.599C425.953 535.599 431.62 529.399 438.953 524.999C446.286 520.599 454.686 518.399 464.153 518.399C471.086 518.399 477.82 520.132 484.353 523.599C491.02 527.066 496.353 531.599 500.353 537.199H500.553L503.353 521.799H521.953V614.799C521.953 625.599 519.486 635.132 514.553 643.399C509.753 651.666 502.953 658.066 494.153 662.599C485.353 667.132 475.153 669.399 463.553 669.399ZM469.353 604.799C475.62 604.799 481.153 603.332 485.953 600.399C490.753 597.466 494.486 593.466 497.153 588.399C499.82 583.332 501.153 577.666 501.153 571.399C501.153 564.866 499.82 558.999 497.153 553.799C494.486 548.466 490.753 544.332 485.953 541.399C481.153 538.332 475.62 536.799 469.353 536.799C459.886 536.799 452.22 539.999 446.353 546.399C440.486 552.799 437.553 561.132 437.553 571.399C437.553 581.399 440.486 589.466 446.353 595.599C452.22 601.732 459.886 604.799 469.353 604.799Z" fill="white"/>
<path d="M370.476 517.999C381.81 517.999 390.676 521.466 397.076 528.399C403.476 535.199 406.676 544.666 406.676 556.799V623.399H385.076V560.999C385.076 553.532 383.01 547.599 378.876 543.199C374.743 538.666 369.343 536.399 362.676 536.399C354.143 536.399 347.076 539.266 341.476 544.999C335.876 550.599 333.076 557.866 333.076 566.799V623.399H311.276V521.799H330.276L333.076 536.399H333.276C342.343 524.132 354.743 517.999 370.476 517.999Z" fill="white"/>
<path d="M253.475 627.399C242.408 627.399 232.475 624.999 223.675 620.199C215.008 615.399 208.208 608.799 203.275 600.399C198.342 591.865 195.875 582.199 195.875 571.399C195.875 561.132 198.142 551.932 202.675 543.799C207.208 535.665 213.475 529.332 221.475 524.799C229.608 520.132 238.742 517.799 248.875 517.799C258.875 517.799 267.742 520.065 275.475 524.599C283.208 529.132 289.142 535.399 293.275 543.399C297.542 551.399 299.675 560.532 299.675 570.799C299.675 573.732 299.475 576.532 299.075 579.199H218.275C219.475 588.265 223.342 595.599 229.875 601.199C236.408 606.665 244.408 609.399 253.875 609.399C261.075 609.399 267.542 607.865 273.275 604.799C279.008 601.732 283.208 597.732 285.875 592.799L302.075 600.999C298.742 608.732 292.608 615.065 283.675 619.999C274.875 624.932 264.808 627.399 253.475 627.399ZM277.075 563.199C276.142 554.265 273.142 547.465 268.075 542.799C263.142 538.132 256.675 535.799 248.675 535.799C240.808 535.799 234.142 538.332 228.675 543.399C223.208 548.332 219.742 554.932 218.275 563.199H277.075Z" fill="white"/>
</svg>
