<svg xmlns="http://www.w3.org/2000/svg" viewBox="358 0 266 266" fill="none">
<path d="M494.325 103.284C493.787 107.582 487.559 107.582 487.021 103.284L474.627 4.13768C474.353 1.94092 476.066 -1.30542e-05 478.28 -1.26671e-05L503.066 -1.05002e-05C505.28 -1.01131e-05 506.993 1.94092 506.718 4.13769L494.325 103.284ZM508.439 109.031C505.824 112.485 500.43 109.37 502.114 105.379L540.954 13.3184C541.814 11.2789 544.268 10.4549 546.185 11.5615L567.651 23.9551C569.568 25.062 570.082 27.5991 568.746 29.3643L508.439 109.031ZM479.223 105.38C480.907 109.371 475.512 112.486 472.897 109.032L412.59 29.3652C411.254 27.6001 411.768 25.063 413.685 23.956L435.151 11.5625C437.068 10.4556 439.522 11.2797 440.382 13.3193L479.223 105.38ZM517.793 121.048C513.802 122.731 510.688 117.336 514.142 114.722L593.808 54.415C595.573 53.0789 598.11 53.5925 599.217 55.5098L611.611 76.9756C612.718 78.8928 611.894 81.3464 609.854 82.207L517.793 121.048ZM467.207 114.734C470.66 117.349 467.546 122.744 463.554 121.06L371.494 82.2197C369.454 81.3591 368.63 78.9054 369.737 76.9883L382.13 55.5224C383.237 53.6052 385.774 53.0916 387.54 54.4277L467.207 114.734ZM623.174 144.892C623.174 147.105 621.234 148.818 619.038 148.544L519.891 136.15C515.592 135.613 515.592 129.384 519.891 128.847L619.038 116.453C621.234 116.179 623.174 117.892 623.174 120.105L623.174 144.892ZM362.311 148.545C360.114 148.819 358.175 147.107 358.174 144.894L358.174 120.106C358.174 117.893 360.114 116.18 362.311 116.454L461.458 128.848C465.756 129.385 465.756 135.615 461.458 136.152L362.311 148.545ZM599.254 209.476C598.147 211.393 595.61 211.906 593.845 210.57L514.178 150.265C510.724 147.65 513.839 142.254 517.831 143.938L609.89 182.779C611.93 183.64 612.754 186.093 611.647 188.01L599.254 209.476ZM387.541 210.583C385.775 211.919 383.238 211.406 382.131 209.488L369.738 188.022C368.631 186.105 369.455 183.652 371.495 182.791L463.555 143.951C467.547 142.267 470.661 147.662 467.207 150.276L387.541 210.583ZM546.198 253.436C544.281 254.542 541.827 253.718 540.966 251.679L502.125 159.618C500.442 155.627 505.837 152.513 508.452 155.967L568.758 235.633C570.094 237.398 569.581 239.935 567.664 241.042L546.198 253.436ZM440.395 251.715C439.534 253.755 437.081 254.579 435.164 253.472L413.698 241.079C411.781 239.972 411.267 237.435 412.603 235.67L472.910 156.003C475.524 152.549 480.919 155.664 479.235 159.655L440.395 251.715ZM478.282 264.999C476.068 264.999 474.355 263.059 474.629 260.862L487.023 161.716C487.560 157.417 493.790 157.417 494.328 161.716L506.720 260.862C506.995 263.059 505.282 264.999 503.068 264.999L478.282 264.999Z" fill="white"/>
</svg>
