<svg width="575" height="575" viewBox="0 0 575 575" fill="none" xmlns="http://www.w3.org/2000/svg">
<path d="M279.354 350.613C280.519 341.293 294.024 341.293 295.189 350.613L322.06 565.571C322.655 570.334 318.941 574.54 314.142 574.54H260.401C255.602 574.54 251.888 570.334 252.483 565.571L279.354 350.613ZM248.754 338.152C254.423 330.664 266.119 337.417 262.469 346.07L178.26 545.665C176.394 550.087 171.074 551.874 166.917 549.474L120.378 522.604C116.221 520.204 115.108 514.704 118.005 510.877L248.754 338.152ZM312.099 346.068C308.448 337.415 320.144 330.662 325.813 338.15L456.562 510.875C459.458 514.702 458.346 520.202 454.189 522.602L407.649 549.472C403.493 551.871 398.174 550.085 396.308 545.663L312.099 346.068ZM228.473 312.1C237.126 308.449 243.88 320.145 236.392 325.814L63.667 456.563C59.84 459.46 54.3403 458.347 51.9404 454.19L25.0703 407.65C22.6707 403.494 24.4568 398.174 28.8789 396.309L228.473 312.1ZM338.15 325.787C330.662 320.118 337.416 308.421 346.069 312.072L545.663 396.282C550.085 398.148 551.872 403.467 549.472 407.624L522.602 454.164C520.202 458.32 514.702 459.433 510.875 456.536L338.15 325.787ZM0 260.403C0.000134895 255.604 4.20622 251.89 8.96875 252.485L223.927 279.355C233.247 280.52 233.247 294.026 223.927 295.191L8.96875 322.062C4.20616 322.657 -6.71185e-07 318.942 0 314.143V260.403ZM565.571 252.481C570.334 251.886 574.541 255.601 574.541 260.4V314.14C574.541 318.939 570.334 322.653 565.571 322.058L350.614 295.188C341.294 294.023 341.294 280.517 350.614 279.352L565.571 252.481ZM51.8594 120.38C54.2593 116.223 59.7599 115.11 63.5869 118.007L236.311 248.756C243.799 254.425 237.046 266.122 228.393 262.471L28.7988 178.262C24.3765 176.396 22.5903 171.076 24.9902 166.919L51.8594 120.38ZM510.874 117.98C514.701 115.084 520.201 116.196 522.601 120.353L549.471 166.893C551.87 171.049 550.084 176.368 545.662 178.234L346.067 262.443C337.414 266.094 330.661 254.397 338.149 248.729L510.874 117.98ZM166.891 25.0713C171.047 22.6715 176.367 24.4586 178.232 28.8809L262.441 228.475C266.092 237.128 254.395 243.881 248.727 236.393L117.979 63.668C115.082 59.841 116.194 54.3414 120.351 51.9414L166.891 25.0713ZM396.279 28.8008C398.145 24.3784 403.465 22.5923 407.622 24.9922L454.161 51.8623C458.318 54.2622 459.431 59.7619 456.534 63.5889L325.785 236.312C320.116 243.801 308.419 237.048 312.07 228.395L396.279 28.8008ZM314.139 0C318.939 0 322.653 4.20696 322.058 8.96973L295.188 223.928C294.022 233.247 280.517 233.247 279.352 223.928L252.481 8.96973C251.886 4.20702 255.6 0.000110261 260.399 0H314.139Z" fill="#1B1B1B"/>
</svg>
