<svg width="383" height="51" viewBox="0 0 383 51" fill="none" xmlns="http://www.w3.org/2000/svg">
<path d="M369.634 41.899C362.258 41.899 357.006 38.8304 356.829 32.1619H362.199C362.671 35.9387 365.917 37.296 369.693 37.296C373.47 37.296 376.421 35.9387 376.421 32.634C376.421 30.1555 374.71 29.1523 371.818 28.5031L366.094 27.2048C360.31 25.8475 357.714 22.8969 357.714 18.766C357.714 13.1598 362.494 10.0321 369.634 10.0321C376.952 10.0321 381.378 13.3368 381.673 19.6512H376.657C376.126 15.8744 373.529 14.6351 369.693 14.6351C365.681 14.6351 363.497 15.9924 363.497 18.648C363.497 20.7724 364.854 22.0707 368.041 22.7789L373.824 24.0772C378.781 25.2574 382.499 27.2638 382.499 32.516C382.499 39.3025 376.362 41.899 369.634 41.899Z" fill="#161616"/>
<path d="M339.625 41.3091V10.6224H345.585V17.7039H345.762C346.648 14.1041 349.539 10.2683 355.145 10.2683C355.913 10.2683 356.739 10.3273 357.447 10.5634V15.5795C356.68 15.4614 355.972 15.4024 355.204 15.4024C349.48 15.4024 345.585 19.1202 345.585 25.9657V41.3091H339.625Z" fill="#161616"/>
<path d="M323.499 41.899C315.237 41.899 308.628 37.06 308.628 26.0246C308.628 14.7531 315.355 10.0321 323.263 10.0321C331.171 10.0321 337.249 14.8121 337.249 25.5525C337.249 26.6147 337.19 27.2048 337.072 27.854H314.352C314.824 34.2864 318.07 37.237 323.558 37.237C327.335 37.237 330.227 35.8797 331.525 32.2799H336.836C335.007 39.1254 329.755 41.899 323.499 41.899ZM314.411 23.369H331.584C331.466 17.9988 328.456 14.6941 323.204 14.6941C318.306 14.6941 314.942 17.5267 314.411 23.369Z" fill="#161616"/>
<path d="M290.031 41.8991C283.185 41.8991 276.34 37.06 276.34 25.9656C276.34 14.8122 283.185 10.0322 290.031 10.0322C294.575 10.0322 298.47 12.0976 300.299 15.4614V0H306.259V41.309H300.299V36.4699C298.47 39.8337 294.575 41.8991 290.031 41.8991ZM291.27 36.883C295.991 36.883 300.594 33.4603 300.594 25.9656C300.594 18.471 295.991 15.0483 291.27 15.0483C286.49 15.0483 282.005 18.471 282.005 25.9656C282.005 33.4603 286.49 36.883 291.27 36.883Z" fill="#161616"/>
<path d="M267.985 23.546C267.985 18.0578 265.624 15.0482 260.785 15.0482C255.946 15.0482 252.582 18.0578 252.582 23.546V41.3089H246.622V10.6222H252.582V16.7596H252.759C253.291 14.4581 256.241 10.0321 263.087 10.0321C269.106 10.0321 273.945 13.5139 273.945 22.1887V41.3089H267.985V23.546Z" fill="#161616"/>
<path d="M225.664 41.899C219.94 41.899 215.396 39.3615 215.396 33.2832C215.396 27.3819 219.704 24.9624 225.192 24.3132L232.805 23.428C235.637 23.0739 236.582 22.5428 236.582 21.5986V20.7724C236.582 15.8744 234.044 14.5761 229.736 14.5761C225.31 14.5761 222.832 15.8744 222.832 19.7692V20.4774H217.107V19.2381C217.107 13.1008 221.415 10.0321 229.854 10.0321C238.529 10.0321 242.542 13.2778 242.542 20.7134V41.3089H236.936V36.3518H236.7C236.109 37.5321 233.218 41.899 225.664 41.899ZM227.14 37.237C233.631 37.237 236.582 33.2241 236.582 29.9194V26.5557C236.169 27.2048 235.401 27.6179 232.392 27.972L226.608 28.7392C222.773 29.2113 221.356 30.5686 221.356 32.9881C221.356 35.8797 223.422 37.237 227.14 37.237Z" fill="#161616"/>
<path d="M207.06 41.309V0H213.02V41.309H207.06Z" fill="#161616"/>
<path d="M197.257 23.546C197.257 18.0578 195.133 15.0482 190.648 15.0482C186.34 15.0482 183.33 18.0578 183.33 23.546V41.3089H177.37V23.546C177.37 18.0578 175.186 15.0482 170.76 15.0482C166.452 15.0482 163.443 18.0578 163.443 23.546V41.3089H157.482V10.6222H163.443V16.7596H163.62C164.092 14.4581 167.043 10.0321 173.121 10.0321C177.429 10.0321 181.147 12.0976 182.622 16.9956C183.33 14.5171 186.34 10.0321 192.772 10.0321C198.732 10.0321 203.217 13.5139 203.217 22.1887V41.3089H197.257V23.546Z" fill="#161616"/>
<path d="M140.09 41.899C132.477 41.899 125.16 36.9419 125.16 25.9656C125.16 14.9892 132.477 10.0321 140.09 10.0321C147.762 10.0321 155.079 14.9892 155.079 25.9656C155.079 36.9419 147.762 41.899 140.09 41.899ZM140.09 36.8829C145.047 36.8829 149.414 33.5192 149.414 25.9656C149.414 18.4119 145.047 15.0482 140.09 15.0482C135.133 15.0482 130.825 18.4119 130.825 25.9656C130.825 33.5192 135.133 36.8829 140.09 36.8829Z" fill="#161616"/>
<path d="M111.204 41.899C103.473 41.899 96.2144 37.119 96.2144 26.0246C96.2144 14.9302 103.473 10.0321 111.204 10.0321C116.692 10.0321 123.478 12.3926 124.6 21.5396H119.17C118.344 16.8186 114.98 15.1072 111.145 15.1072C105.538 15.1072 101.821 19.1201 101.821 26.0246C101.821 32.9291 105.538 36.8239 111.145 36.8239C115.039 36.8239 118.344 35.0535 119.17 30.2735H124.6C123.596 39.5385 116.692 41.899 111.204 41.899Z" fill="#161616"/>
<path d="M81.276 41.899C73.0142 41.899 66.4048 37.06 66.4048 26.0246C66.4048 14.7531 73.1322 10.0321 81.04 10.0321C88.9477 10.0321 95.026 14.8121 95.026 25.5525C95.026 26.6147 94.967 27.2048 94.849 27.854H72.129C72.6011 34.2864 75.8468 37.237 81.335 37.237C85.1119 37.237 88.0035 35.8797 89.3018 32.2799H94.6129C92.7835 39.1254 87.5314 41.899 81.276 41.899ZM72.188 23.369H89.3608C89.2427 17.9988 86.2331 14.6941 80.981 14.6941C76.0829 14.6941 72.7192 17.5267 72.188 23.369Z" fill="#161616"/>
<path fill-rule="evenodd" clip-rule="evenodd" d="M23.2461 31.8348C23.3432 31.0595 24.4673 31.0595 24.5645 31.8348L26.8008 49.7245C26.8501 50.1207 26.5409 50.4705 26.1416 50.4706H21.6689C21.2697 50.4704 20.9604 50.1206 21.0098 49.7245L23.2461 31.8348ZM20.6992 30.7987C21.171 30.1758 22.1444 30.7379 21.8408 31.4579L14.833 48.0682C14.6777 48.4363 14.2346 48.5853 13.8887 48.3856L10.0156 46.1493C9.66994 45.9495 9.57743 45.4921 9.81836 45.1737L20.6992 30.7987ZM25.9727 31.4579C25.6692 30.7378 26.6416 30.1766 27.1133 30.7997L37.9951 45.1737C38.236 45.492 38.1434 45.9494 37.7979 46.1493L33.9248 48.3856C33.579 48.5853 33.1359 48.437 32.9805 48.0692L25.9727 31.4579ZM19.0117 28.6288C19.7318 28.325 20.294 29.2986 19.6709 29.7704L5.2959 40.6512C4.97744 40.8921 4.52002 40.7998 4.32031 40.454L2.08398 36.5809C1.88426 36.235 2.03333 35.7919 2.40137 35.6366L19.0117 28.6288ZM28.1426 29.7704C27.5193 29.2986 28.0816 28.3249 28.8018 28.6288L45.4121 35.6366C45.7801 35.7919 45.9292 36.235 45.7295 36.5809L43.4932 40.454C43.2935 40.7997 42.836 40.892 42.5176 40.6512L28.1426 29.7704ZM0.746094 23.6678L18.6348 25.9042C19.4104 26.0011 19.4104 27.1256 18.6348 27.2225L0.746094 29.4579C0.349852 29.5074 0.000218431 29.199 0 28.7997V24.327C7.17118e-08 23.9276 0.349729 23.6183 0.746094 23.6678ZM47.0674 23.6688C47.4637 23.6193 47.8135 23.9286 47.8135 24.328V28.7997C47.8135 29.1991 47.4637 29.5084 47.0674 29.4589L29.1777 27.2225C28.4027 27.1252 28.4027 26.0025 29.1777 25.9052L47.0674 23.6688ZM4.32031 12.6737C4.52004 12.3278 4.97741 12.2353 5.2959 12.4764L19.6709 23.3573C20.2936 23.8291 19.7317 24.8024 19.0117 24.4989L2.40137 17.4901C2.03341 17.3349 1.88444 16.8927 2.08398 16.5468L4.32031 12.6737ZM42.5166 12.4755C42.8351 12.2348 43.2926 12.3279 43.4922 12.6737L45.7285 16.5468C45.9279 16.8926 45.779 17.3349 45.4111 17.4901L28.8008 24.4979C28.0807 24.8017 27.5188 23.8292 28.1416 23.3573L42.5166 12.4755ZM32.9805 5.05847C33.1357 4.69044 33.5789 4.54136 33.9248 4.74109L37.7979 6.97742C38.1434 7.17717 38.2358 7.63462 37.9951 7.953L27.1143 22.328C26.6425 22.9512 25.6688 22.389 25.9727 21.6688L32.9805 5.05847ZM13.8887 4.74109C14.2345 4.54141 14.6776 4.68965 14.833 5.0575L21.8408 21.6688C22.1442 22.3888 21.1709 22.9502 20.6992 22.327L9.81836 7.953C9.57735 7.63462 9.66998 7.17725 10.0156 6.97742L13.8887 4.74109ZM26.1426 2.65613C26.5417 2.65631 26.85 3.00613 26.8008 3.40222L24.5654 21.2919C24.4685 22.0675 23.344 22.0675 23.2471 21.2919L21.0107 3.40222C20.9615 3.00608 21.2707 2.65617 21.6699 2.65613H26.1426Z" fill="#161616"/>
</svg>
