<svg width="48" height="51" viewBox="0 0 48 51" fill="none" xmlns="http://www.w3.org/2000/svg">
<path fill-rule="evenodd" clip-rule="evenodd" d="M23.2461 31.8348C23.3432 31.0595 24.4673 31.0595 24.5645 31.8348L26.8008 49.7245C26.8501 50.1207 26.5409 50.4705 26.1416 50.4706H21.6689C21.2697 50.4704 20.9604 50.1206 21.0098 49.7245L23.2461 31.8348ZM20.6992 30.7987C21.171 30.1758 22.1444 30.7379 21.8408 31.4579L14.833 48.0682C14.6777 48.4363 14.2346 48.5853 13.8887 48.3856L10.0156 46.1493C9.66994 45.9495 9.57743 45.4921 9.81836 45.1737L20.6992 30.7987ZM25.9727 31.4579C25.6692 30.7378 26.6416 30.1766 27.1133 30.7997L37.9951 45.1737C38.236 45.492 38.1434 45.9494 37.7979 46.1493L33.9248 48.3856C33.579 48.5853 33.1359 48.437 32.9805 48.0692L25.9727 31.4579ZM19.0117 28.6288C19.7318 28.325 20.294 29.2986 19.6709 29.7704L5.2959 40.6512C4.97744 40.8921 4.52002 40.7998 4.32031 40.454L2.08398 36.5809C1.88426 36.235 2.03333 35.7919 2.40137 35.6366L19.0117 28.6288ZM28.1426 29.7704C27.5193 29.2986 28.0816 28.3249 28.8018 28.6288L45.4121 35.6366C45.7801 35.7919 45.9292 36.235 45.7295 36.5809L43.4932 40.454C43.2935 40.7997 42.836 40.892 42.5176 40.6512L28.1426 29.7704ZM0.746094 23.6678L18.6348 25.9042C19.4104 26.0011 19.4104 27.1256 18.6348 27.2225L0.746094 29.4579C0.349852 29.5074 0.000218431 29.199 0 28.7997V24.327C7.17118e-08 23.9276 0.349729 23.6183 0.746094 23.6678ZM47.0674 23.6688C47.4637 23.6193 47.8135 23.9286 47.8135 24.328V28.7997C47.8135 29.1991 47.4637 29.5084 47.0674 29.4589L29.1777 27.2225C28.4027 27.1252 28.4027 26.0025 29.1777 25.9052L47.0674 23.6688ZM4.32031 12.6737C4.52004 12.3278 4.97741 12.2353 5.2959 12.4764L19.6709 23.3573C20.2936 23.8291 19.7317 24.8024 19.0117 24.4989L2.40137 17.4901C2.03341 17.3349 1.88444 16.8927 2.08398 16.5468L4.32031 12.6737ZM42.5166 12.4755C42.8351 12.2348 43.2926 12.3279 43.4922 12.6737L45.7285 16.5468C45.9279 16.8926 45.779 17.3349 45.4111 17.4901L28.8008 24.4979C28.0807 24.8017 27.5188 23.8292 28.1416 23.3573L42.5166 12.4755ZM32.9805 5.05847C33.1357 4.69044 33.5789 4.54136 33.9248 4.74109L37.7979 6.97742C38.1434 7.17717 38.2358 7.63462 37.9951 7.953L27.1143 22.328C26.6425 22.9512 25.6688 22.389 25.9727 21.6688L32.9805 5.05847ZM13.8887 4.74109C14.2345 4.54141 14.6776 4.68965 14.833 5.0575L21.8408 21.6688C22.1442 22.3888 21.1709 22.9502 20.6992 22.327L9.81836 7.953C9.57735 7.63462 9.66998 7.17725 10.0156 6.97742L13.8887 4.74109ZM26.1426 2.65613C26.5417 2.65631 26.85 3.00613 26.8008 3.40222L24.5654 21.2919C24.4685 22.0675 23.344 22.0675 23.2471 21.2919L21.0107 3.40222C20.9615 3.00608 21.2707 2.65617 21.6699 2.65613H26.1426Z" fill="#1B1B1B"/>
</svg>
