<svg xmlns="http://www.w3.org/2000/svg" viewBox="0 0 16 16" shape-rendering="crispEdges" width="16" height="16">
  <rect width="16" height="16" fill="#DBEAFE"/>
  <rect x="4" y="2" width="7" height="1" fill="#4A2C1A"/>
  <rect x="3" y="3" width="9" height="1" fill="#4A2C1A"/>
  <rect x="3" y="4" width="2" height="2" fill="#4A2C1A"/>
  <rect x="10" y="4" width="2" height="2" fill="#4A2C1A"/>
  <rect x="5" y="4" width="5" height="1" fill="#E8B89A"/>
  <rect x="4" y="5" width="7" height="1" fill="#E8B89A"/>
  <rect x="4" y="6" width="8" height="1" fill="#E8B89A"/>
  <rect x="4" y="7" width="8" height="1" fill="#E8B89A"/>
  <rect x="5" y="8" width="6" height="1" fill="#E8B89A"/>
  <rect x="6" y="6" width="1" height="1" fill="#1B1B1B"/>
  <rect x="9" y="6" width="1" height="1" fill="#1B1B1B"/>
  <rect x="6" y="9" width="3" height="1" fill="#E8B89A"/>
  <rect x="4" y="10" width="8" height="1" fill="#2563EB"/>
  <rect x="3" y="11" width="10" height="1" fill="#2563EB"/>
  <rect x="3" y="12" width="10" height="1" fill="#2563EB"/>
  <rect x="4" y="13" width="8" height="1" fill="#2563EB"/>
  <rect x="7" y="11" width="2" height="1" fill="#FFFFFF"/>
  <rect x="4" y="14" width="3" height="1" fill="#2563EB"/>
  <rect x="9" y="14" width="3" height="1" fill="#2563EB"/>
  <rect x="3" y="15" width="4" height="1" fill="#1B1B1B"/>
  <rect x="9" y="15" width="4" height="1" fill="#1B1B1B"/>
  <!-- prop: clipboard at left hand -->
  <rect x="0" y="10" width="3" height="1" fill="#9CA3AF"/>
  <rect x="0" y="11" width="3" height="3" fill="#FFFFFF"/>
  <rect x="1" y="12" width="2" height="1" fill="#1B1B1B"/>
</svg>
