<svg xmlns="http://www.w3.org/2000/svg" viewBox="0 0 16 16" shape-rendering="crispEdges" width="16" height="16">
  <rect width="16" height="16" fill="#FEE2E2"/>
  <rect x="4" y="2" width="7" height="1" fill="#1B1B1B"/>
  <rect x="3" y="3" width="9" height="1" fill="#1B1B1B"/>
  <rect x="3" y="4" width="2" height="2" fill="#1B1B1B"/>
  <rect x="10" y="4" width="2" height="2" fill="#1B1B1B"/>
  <rect x="5" y="4" width="5" height="1" fill="#D9A47B"/>
  <rect x="4" y="5" width="7" height="1" fill="#D9A47B"/>
  <rect x="4" y="6" width="8" height="1" fill="#D9A47B"/>
  <rect x="4" y="7" width="8" height="1" fill="#D9A47B"/>
  <rect x="5" y="8" width="6" height="1" fill="#D9A47B"/>
  <rect x="6" y="6" width="1" height="1" fill="#1B1B1B"/>
  <rect x="9" y="6" width="1" height="1" fill="#1B1B1B"/>
  <rect x="6" y="9" width="3" height="1" fill="#D9A47B"/>
  <rect x="4" y="10" width="8" height="1" fill="#DC2626"/>
  <rect x="3" y="11" width="10" height="1" fill="#DC2626"/>
  <rect x="3" y="12" width="10" height="1" fill="#DC2626"/>
  <rect x="4" y="13" width="8" height="1" fill="#DC2626"/>
  <rect x="4" y="14" width="3" height="1" fill="#DC2626"/>
  <rect x="9" y="14" width="3" height="1" fill="#DC2626"/>
  <rect x="3" y="15" width="4" height="1" fill="#1B1B1B"/>
  <rect x="9" y="15" width="4" height="1" fill="#1B1B1B"/>
  <!-- working: notepad in front + pen actively writing -->
  <rect x="3" y="9" width="6" height="1" fill="#FBBF24"/>
  <rect x="3" y="10" width="6" height="3" fill="#FFFFFF"/>
  <rect x="4" y="11" width="4" height="1" fill="#1B1B1B"/>
  <rect x="4" y="12" width="3" height="1" fill="#1B1B1B"/>
  <rect x="9" y="11" width="2" height="1" fill="#1B1B1B"/>
  <rect x="11" y="11" width="1" height="1" fill="#FBBF24"/>
</svg>
